<?xml version="1.0" encoding="UTF-8" standalone="no"?>
<!DOCTYPE svg PUBLIC "-//W3C//DTD SVG 1.1//EN" "http://www.w3.org/Graphics/SVG/1.1/DTD/svg11.dtd">
<svg width="100%" height="100%" viewBox="0 0 24 24" version="1.1" xmlns="http://www.w3.org/2000/svg" xmlns:xlink="http://www.w3.org/1999/xlink" xml:space="preserve" xmlns:serif="http://www.serif.com/" style="fill-rule:evenodd;clip-rule:evenodd;stroke-linejoin:round;stroke-miterlimit:2;">
    <path d="M15,1L15,4L14,4L14,5L13,5L13,6L11,6L11,3L12,3L12,2L13,2L13,1L15,1Z" style="fill:rgb(255,179,71);fill-rule:nonzero;"/>
    <path d="M21,17L21,18L20,18L20,20L19,20L19,21L18,21L18,22L17,22L17,23L15,23L15,22L10,22L10,23L8,23L8,22L7,22L7,21L6,21L6,20L5,20L5,19L4,19L4,17L3,17L3,10L4,10L4,8L5,8L5,7L7,7L7,6L10,6L10,7L14,7L14,6L17,6L17,7L19,7L19,8L20,8L20,9L19,9L19,10L18,10L18,15L19,15L19,16L20,16L20,17L21,17Z" style="fill:rgb(255,179,71);fill-rule:nonzero;"/>
</svg>
