<?xml version="1.0" encoding="UTF-8" standalone="no"?>
<!DOCTYPE svg PUBLIC "-//W3C//DTD SVG 1.1//EN" "http://www.w3.org/Graphics/SVG/1.1/DTD/svg11.dtd">
<svg width="100%" height="100%" viewBox="0 0 24 24" version="1.1" xmlns="http://www.w3.org/2000/svg" xmlns:xlink="http://www.w3.org/1999/xlink" xml:space="preserve" xmlns:serif="http://www.serif.com/" style="fill-rule:evenodd;clip-rule:evenodd;stroke-linejoin:round;stroke-miterlimit:2;">
    <path d="M22,10L22,8L21,8L21,6L20,6L20,4L19,4L19,3L17,3L17,2L14,2L14,1L10,1L10,2L7,2L7,3L5,3L5,4L4,4L4,5L3,5L3,7L2,7L2,9L1,9L1,15L2,15L2,17L3,17L3,19L4,19L4,20L5,20L5,21L7,21L7,22L10,22L10,23L14,23L14,22L17,22L17,20L14,20L14,21L10,21L10,20L7,20L7,19L6,19L6,18L5,18L5,16L4,16L4,14L3,14L3,10L4,10L4,8L5,8L5,6L6,6L6,5L7,5L7,4L10,4L10,3L14,3L14,4L17,4L17,5L18,5L18,6L19,6L19,8L20,8L20,10L21,10L21,14L20,14L20,15L18,15L18,10L17,10L17,8L16,8L16,7L14,7L14,6L10,6L10,7L8,7L8,8L7,8L7,10L6,10L6,14L7,14L7,16L8,16L8,17L10,17L10,18L14,18L14,17L16,17L16,16L17,16L17,17L21,17L21,16L22,16L22,14L23,14L23,10L22,10ZM16,14L15,14L15,15L14,15L14,16L10,16L10,15L9,15L9,14L8,14L8,10L9,10L9,9L10,9L10,8L14,8L14,9L15,9L15,10L16,10L16,14Z" style="fill:rgb(255,179,71);fill-rule:nonzero;"/>
</svg>
