<?xml version="1.0" encoding="UTF-8" standalone="no"?>
<!DOCTYPE svg PUBLIC "-//W3C//DTD SVG 1.1//EN" "http://www.w3.org/Graphics/SVG/1.1/DTD/svg11.dtd">
<svg width="100%" height="100%" viewBox="0 0 24 24" version="1.1" xmlns="http://www.w3.org/2000/svg" xmlns:xlink="http://www.w3.org/1999/xlink" xml:space="preserve" xmlns:serif="http://www.serif.com/" style="fill-rule:evenodd;clip-rule:evenodd;stroke-linejoin:round;stroke-miterlimit:2;">
    <rect x="21.505" y="17.503" width="2" height="2.001" style="fill:rgb(255,179,71);fill-rule:nonzero;"/>
    <rect x="16.503" y="21.504" width="2.001" height="2" style="fill:rgb(255,179,71);fill-rule:nonzero;"/>
    <path d="M20.504,17.504L20.504,18.504L18.504,18.504L18.504,17.504L17.504,17.504L17.504,14.503L18.504,14.503L18.504,16.503L19.504,16.503L19.504,17.504L20.504,17.504Z" style="fill:rgb(255,179,71);fill-rule:nonzero;"/>
    <path d="M16.503,19.504L16.503,20.504L14.503,20.504L14.503,19.504L13.503,19.504L13.503,14.503L14.503,14.503L14.503,18.504L15.503,18.504L15.503,19.504L16.503,19.504Z" style="fill:rgb(255,179,71);fill-rule:nonzero;"/>
    <path d="M11.502,14.503L11.502,19.504L10.502,19.504L10.502,20.504L8.502,20.504L8.502,19.504L9.502,19.504L9.502,18.504L10.502,18.504L10.502,14.503L11.502,14.503Z" style="fill:rgb(255,179,71);fill-rule:nonzero;"/>
    <rect x="6.501" y="21.504" width="2" height="2" style="fill:rgb(255,179,71);fill-rule:nonzero;"/>
    <path d="M7.501,14.503L7.501,17.504L6.501,17.504L6.501,18.504L4.501,18.504L4.501,17.504L5.501,17.504L5.501,16.503L6.501,16.503L6.501,14.503L7.501,14.503Z" style="fill:rgb(255,179,71);fill-rule:nonzero;"/>
    <path d="M22.505,7.501L22.505,6.501L21.505,6.501L21.505,5.501L19.504,5.501L19.504,3.5L18.504,3.5L18.504,2.5L17.504,2.5L17.504,1.5L12.502,1.5L12.502,2.5L11.502,2.5L11.502,3.5L10.502,3.5L10.502,4.501L9.502,4.501L9.502,3.5L6.501,3.5L6.501,4.501L5.501,4.501L5.501,5.501L4.501,5.501L4.501,7.501L2.5,7.501L2.5,8.502L1.5,8.502L1.5,11.502L2.5,11.502L2.5,12.502L3.5,12.502L3.5,13.503L21.505,13.503L21.505,12.502L22.505,12.502L22.505,11.502L23.505,11.502L23.505,7.501L22.505,7.501ZM14.503,10.502L14.503,9.502L13.503,9.502L13.503,7.501L14.503,7.501L14.503,8.502L15.503,8.502L15.503,5.501L16.503,5.501L16.503,8.502L17.504,8.502L17.504,7.501L18.504,7.501L18.504,9.502L17.504,9.502L17.504,10.502L16.503,10.502L16.503,11.502L15.503,11.502L15.503,10.502L14.503,10.502ZM10.502,6.501L10.502,7.501L11.502,7.501L11.502,9.502L10.502,9.502L10.502,8.502L9.502,8.502L9.502,11.502L8.502,11.502L8.502,8.502L7.501,8.502L7.501,9.502L6.501,9.502L6.501,7.501L7.501,7.501L7.501,6.501L8.502,6.501L8.502,5.501L9.502,5.501L9.502,6.501L10.502,6.501Z" style="fill:rgb(255,179,71);fill-rule:nonzero;"/>
    <rect x="1.5" y="17.503" width="2" height="2.001" style="fill:rgb(255,179,71);fill-rule:nonzero;"/>
</svg>
