<?xml version="1.0" encoding="UTF-8" standalone="no"?>
<!DOCTYPE svg PUBLIC "-//W3C//DTD SVG 1.1//EN" "http://www.w3.org/Graphics/SVG/1.1/DTD/svg11.dtd">
<svg width="100%" height="100%" viewBox="0 0 24 24" version="1.1" xmlns="http://www.w3.org/2000/svg" xmlns:xlink="http://www.w3.org/1999/xlink" xml:space="preserve" xmlns:serif="http://www.serif.com/" style="fill-rule:evenodd;clip-rule:evenodd;stroke-linejoin:round;stroke-miterlimit:2;">
    <path d="M18,11L17,11L17,13L7,13L7,14L16,14L16,16L1,16L1,14L2,14L2,12L4,12L4,10L5,10L5,9L7,9L7,10L8,10L8,8L9,8L9,7L11,7L11,6L16,6L16,7L17,7L17,8L18,8L18,11Z" style="fill:rgb(255,179,71);fill-rule:nonzero;"/>
    <path d="M23,12L23,16L17,16L17,15L18,15L18,14L21,14L21,13L18,13L18,11L19,11L19,10L21,10L21,11L22,11L22,12L23,12Z" style="fill:rgb(255,179,71);fill-rule:nonzero;"/>
</svg>
