<?xml version="1.0" encoding="UTF-8" standalone="no"?>
<!DOCTYPE svg PUBLIC "-//W3C//DTD SVG 1.1//EN" "http://www.w3.org/Graphics/SVG/1.1/DTD/svg11.dtd">
<svg width="100%" height="100%" viewBox="0 0 24 24" version="1.1" xmlns="http://www.w3.org/2000/svg" xmlns:xlink="http://www.w3.org/1999/xlink" xml:space="preserve" xmlns:serif="http://www.serif.com/" style="fill-rule:evenodd;clip-rule:evenodd;stroke-linejoin:round;stroke-miterlimit:2;">
    <path d="M7,7L7,8L6,8L6,9L5,9L5,10L4,10L4,11L3,11L3,13L4,13L4,14L5,14L5,15L6,15L6,16L7,16L7,17L5,17L5,16L4,16L4,15L3,15L3,14L2,14L2,13L1,13L1,11L2,11L2,10L3,10L3,9L4,9L4,8L5,8L5,7L7,7Z" style="fill:rgb(255,179,71);fill-rule:nonzero;"/>
    <path d="M15,3L16,3L16,6L15,6L15,9L14,9L14,12L13,12L13,14L12,14L12,17L11,17L11,20L10,20L10,21L9,21L9,18L10,18L10,15L11,15L11,12L12,12L12,10L13,10L13,7L14,7L14,4L15,4L15,3Z" style="fill:rgb(255,179,71);fill-rule:nonzero;"/>
    <path d="M23,11L23,13L22,13L22,14L21,14L21,15L20,15L20,16L19,16L19,17L17,17L17,16L18,16L18,15L19,15L19,14L20,14L20,13L21,13L21,11L20,11L20,10L19,10L19,9L18,9L18,8L17,8L17,7L19,7L19,8L20,8L20,9L21,9L21,10L22,10L22,11L23,11Z" style="fill:rgb(255,179,71);fill-rule:nonzero;"/>
</svg>
