<?xml version="1.0" encoding="UTF-8" standalone="no"?>
<!DOCTYPE svg PUBLIC "-//W3C//DTD SVG 1.1//EN" "http://www.w3.org/Graphics/SVG/1.1/DTD/svg11.dtd">
<svg width="100%" height="100%" viewBox="0 0 24 24" version="1.1" xmlns="http://www.w3.org/2000/svg" xmlns:xlink="http://www.w3.org/1999/xlink" xml:space="preserve" xmlns:serif="http://www.serif.com/" style="fill-rule:evenodd;clip-rule:evenodd;stroke-linejoin:round;stroke-miterlimit:2;">
    <path d="M22,11L22,8L21,8L21,6L20,6L20,5L18,5L18,4L15,4L15,5L9,5L9,4L6,4L6,5L4,5L4,6L3,6L3,8L2,8L2,11L1,11L1,18L3,18L3,19L5,19L5,20L7,20L7,18L6,18L6,17L8,17L8,18L9,18L9,19L15,19L15,18L16,18L16,17L18,17L18,18L17,18L17,20L19,20L19,19L21,19L21,18L23,18L23,11L22,11ZM9,15L7,15L7,14L6,14L6,12L7,12L7,11L9,11L9,12L10,12L10,14L9,14L9,15ZM18,14L17,14L17,15L15,15L15,14L14,14L14,12L15,12L15,11L17,11L17,12L18,12L18,14Z" style="fill:rgb(255,179,71);fill-rule:nonzero;"/>
</svg>
