<?xml version="1.0" encoding="UTF-8" standalone="no"?>
<!DOCTYPE svg PUBLIC "-//W3C//DTD SVG 1.1//EN" "http://www.w3.org/Graphics/SVG/1.1/DTD/svg11.dtd">
<svg width="100%" height="100%" viewBox="0 0 24 24" version="1.1" xmlns="http://www.w3.org/2000/svg" xmlns:xlink="http://www.w3.org/1999/xlink" xml:space="preserve" xmlns:serif="http://www.serif.com/" style="fill-rule:evenodd;clip-rule:evenodd;stroke-linejoin:round;stroke-miterlimit:2;">
    <path d="M17,12L17,11L16,11L16,10L13,10L13,6L16,6L16,5L17,5L17,4L16,4L16,3L13,3L13,1L11,1L11,3L8,3L8,4L7,4L7,5L6,5L6,11L7,11L7,12L8,12L8,13L11,13L11,18L7,18L7,19L6,19L6,20L7,20L7,21L11,21L11,23L13,23L13,21L16,21L16,20L17,20L17,19L18,19L18,12L17,12ZM11,10L10,10L10,9L9,9L9,7L10,7L10,6L11,6L11,10ZM15,17L14,17L14,18L13,18L13,13L14,13L14,14L15,14L15,17Z" style="fill:rgb(255,179,71);fill-rule:nonzero;"/>
</svg>
