<?xml version="1.0" encoding="UTF-8" standalone="no"?>
<!DOCTYPE svg PUBLIC "-//W3C//DTD SVG 1.1//EN" "http://www.w3.org/Graphics/SVG/1.1/DTD/svg11.dtd">
<svg width="100%" height="100%" viewBox="0 0 24 24" version="1.1" xmlns="http://www.w3.org/2000/svg" xmlns:xlink="http://www.w3.org/1999/xlink" xml:space="preserve" xmlns:serif="http://www.serif.com/" style="fill-rule:evenodd;clip-rule:evenodd;stroke-linejoin:round;stroke-miterlimit:2;">
    <path d="M21,4L21,5L20,5L20,6L19,6L19,7L18,7L18,8L17,8L17,9L16,9L16,10L15,10L15,11L14,11L14,12L13,12L13,13L11,13L11,12L10,12L10,11L9,11L9,10L8,10L8,9L7,9L7,8L6,8L6,7L5,7L5,6L4,6L4,5L3,5L3,4L21,4Z" style="fill:rgb(255,179,71);fill-rule:nonzero;"/>
    <path d="M23,5L23,19L22,19L22,20L2,20L2,19L1,19L1,5L3,5L3,6L4,6L4,7L5,7L5,8L6,8L6,9L7,9L7,10L8,10L8,11L9,11L9,12L10,12L10,13L11,13L11,14L13,14L13,13L14,13L14,12L15,12L15,11L16,11L16,10L17,10L17,9L18,9L18,8L19,8L19,7L20,7L20,6L21,6L21,5L23,5Z" style="fill:rgb(255,179,71);fill-rule:nonzero;"/>
</svg>
