<?xml version="1.0" encoding="UTF-8" standalone="no"?>
<!DOCTYPE svg PUBLIC "-//W3C//DTD SVG 1.1//EN" "http://www.w3.org/Graphics/SVG/1.1/DTD/svg11.dtd">
<svg width="100%" height="100%" viewBox="0 0 24 24" version="1.1" xmlns="http://www.w3.org/2000/svg" xmlns:xlink="http://www.w3.org/1999/xlink" xml:space="preserve" xmlns:serif="http://www.serif.com/" style="fill-rule:evenodd;clip-rule:evenodd;stroke-linejoin:round;stroke-miterlimit:2;">
    <path d="M19,13L19,10L18,10L18,9L17,9L17,6L16,6L16,4L15,4L15,3L14,3L14,2L13,2L13,1L11,1L11,2L12,2L12,4L11,4L11,6L10,6L10,7L9,7L9,8L8,8L8,9L7,9L7,10L6,10L6,13L7,13L7,15L6,15L6,14L5,14L5,12L4,12L4,14L3,14L3,17L4,17L4,19L5,19L5,20L6,20L6,21L7,21L7,22L8,22L8,23L16,23L16,22L17,22L17,21L18,21L18,20L19,20L19,18L20,18L20,13L19,13ZM17,20L16,20L16,21L14,21L14,22L10,22L10,21L9,21L9,17L10,17L10,16L11,16L11,15L12,15L12,14L13,14L13,11L12,11L12,10L11,10L11,9L12,9L12,10L14,10L14,12L15,12L15,17L14,17L14,19L15,19L15,18L16,18L16,17L17,17L17,20Z" style="fill:rgb(255,179,71);fill-rule:nonzero;"/>
</svg>
