<?xml version="1.0" encoding="UTF-8" standalone="no"?>
<!DOCTYPE svg PUBLIC "-//W3C//DTD SVG 1.1//EN" "http://www.w3.org/Graphics/SVG/1.1/DTD/svg11.dtd">
<svg width="100%" height="100%" viewBox="0 0 24 24" version="1.1" xmlns="http://www.w3.org/2000/svg" xmlns:xlink="http://www.w3.org/1999/xlink" xml:space="preserve" xmlns:serif="http://www.serif.com/" style="fill-rule:evenodd;clip-rule:evenodd;stroke-linejoin:round;stroke-miterlimit:2;">
    <rect x="9.502" y="13.502" width="6.001" height="2" style="fill:rgb(255,179,71);fill-rule:nonzero;"/>
    <path d="M22.505,10.501L22.505,8.501L21.505,8.501L21.505,6.5L20.504,6.5L20.504,5.5L19.504,5.5L19.504,4.5L15.503,4.5L15.503,5.5L9.502,5.5L9.502,4.5L5.501,4.5L5.501,5.5L4.501,5.5L4.501,6.5L3.5,6.5L3.5,8.501L2.5,8.501L2.5,10.501L1.5,10.501L1.5,18.503L2.5,18.503L2.5,19.503L5.501,19.503L5.501,18.503L6.501,18.503L6.501,17.503L7.501,17.503L7.501,16.503L8.502,16.503L8.502,13.502L9.502,13.502L9.502,12.502L15.503,12.502L15.503,13.502L16.503,13.502L16.503,16.503L17.504,16.503L17.504,17.503L18.504,17.503L18.504,18.503L19.504,18.503L19.504,19.503L22.505,19.503L22.505,18.503L23.505,18.503L23.505,10.501L22.505,10.501ZM5.501,8.501L5.501,7.501L6.501,7.501L6.501,6.5L7.501,6.5L7.501,7.501L8.502,7.501L8.502,8.501L9.502,8.501L9.502,9.501L8.502,9.501L8.502,10.501L7.501,10.501L7.501,11.502L6.501,11.502L6.501,10.501L5.501,10.501L5.501,9.501L4.501,9.501L4.501,8.501L5.501,8.501ZM13.503,9.501L12.502,9.501L12.502,10.501L11.502,10.501L11.502,9.501L10.502,9.501L10.502,8.501L11.502,8.501L11.502,7.501L12.502,7.501L12.502,8.501L13.503,8.501L13.503,9.501ZM20.504,10.501L18.504,10.501L18.504,12.502L16.503,12.502L16.503,10.501L14.503,10.501L14.503,8.501L16.503,8.501L16.503,6.5L18.504,6.5L18.504,8.501L20.504,8.501L20.504,10.501Z" style="fill:rgb(255,179,71);fill-rule:nonzero;"/>
    <rect x="16.503" y="8.501" width="2.001" height="2" style="fill:rgb(255,179,71);fill-rule:nonzero;"/>
</svg>
