<?xml version="1.0" encoding="UTF-8" standalone="no"?>
<!DOCTYPE svg PUBLIC "-//W3C//DTD SVG 1.1//EN" "http://www.w3.org/Graphics/SVG/1.1/DTD/svg11.dtd">
<svg width="100%" height="100%" viewBox="0 0 24 24" version="1.1" xmlns="http://www.w3.org/2000/svg" xmlns:xlink="http://www.w3.org/1999/xlink" xml:space="preserve" xmlns:serif="http://www.serif.com/" style="fill-rule:evenodd;clip-rule:evenodd;stroke-linejoin:round;stroke-miterlimit:2;">
    <path d="M23,9L23,15L22,15L22,17L21,17L21,19L20,19L20,20L19,20L19,21L18,21L18,22L16,22L16,23L15,23L15,18L14,18L14,17L15,17L15,16L17,16L17,15L18,15L18,14L19,14L19,9L18,9L18,6L16,6L16,7L15,7L15,8L14,8L14,7L10,7L10,8L9,8L9,7L8,7L8,6L6,6L6,9L5,9L5,14L6,14L6,15L7,15L7,16L9,16L9,18L7,18L7,17L6,17L6,16L4,16L4,17L5,17L5,19L6,19L6,20L9,20L9,23L8,23L8,22L6,22L6,21L5,21L5,20L4,20L4,19L3,19L3,17L2,17L2,15L1,15L1,9L2,9L2,7L3,7L3,5L4,5L4,4L5,4L5,3L7,3L7,2L9,2L9,1L15,1L15,2L17,2L17,3L19,3L19,4L20,4L20,5L21,5L21,7L22,7L22,9L23,9Z" style="fill:rgb(255,179,71);fill-rule:nonzero;"/>
</svg>
