<?xml version="1.0" encoding="UTF-8" standalone="no"?>
<!DOCTYPE svg PUBLIC "-//W3C//DTD SVG 1.1//EN" "http://www.w3.org/Graphics/SVG/1.1/DTD/svg11.dtd">
<svg width="100%" height="100%" viewBox="0 0 24 24" version="1.1" xmlns="http://www.w3.org/2000/svg" xmlns:xlink="http://www.w3.org/1999/xlink" xml:space="preserve" xmlns:serif="http://www.serif.com/" style="fill-rule:evenodd;clip-rule:evenodd;stroke-linejoin:round;stroke-miterlimit:2;">
    <path d="M22,9L22,7L21,7L21,5L20,5L20,4L19,4L19,3L17,3L17,2L15,2L15,1L9,1L9,2L7,2L7,3L5,3L5,4L4,4L4,5L3,5L3,7L2,7L2,9L1,9L1,16L2,16L2,17L3,17L3,19L4,19L4,20L5,20L5,21L7,21L7,22L9,22L9,23L15,23L15,22L17,22L17,21L19,21L19,20L20,20L20,19L21,19L21,17L22,17L22,15L23,15L23,9L22,9ZM21,10L21,14L18,14L18,10L21,10ZM16,4L17,4L17,5L19,5L19,7L20,7L20,8L17,8L17,5L16,5L16,4ZM14,18L14,20L13,20L13,21L11,21L11,20L10,20L10,18L9,18L9,16L15,16L15,18L14,18ZM16,10L16,14L8,14L8,10L16,10ZM9,6L10,6L10,4L11,4L11,3L13,3L13,4L14,4L14,6L15,6L15,8L9,8L9,6ZM4,7L5,7L5,5L7,5L7,4L8,4L8,5L7,5L7,8L4,8L4,7ZM3,14L3,10L6,10L6,14L3,14ZM5,19L5,17L4,17L4,16L7,16L7,19L8,19L8,20L7,20L7,19L5,19ZM19,17L19,19L17,19L17,20L16,20L16,19L17,19L17,16L20,16L20,17L19,17Z" style="fill:rgb(255,179,71);fill-rule:nonzero;"/>
</svg>
