<?xml version="1.0" encoding="UTF-8" standalone="no"?>
<!DOCTYPE svg PUBLIC "-//W3C//DTD SVG 1.1//EN" "http://www.w3.org/Graphics/SVG/1.1/DTD/svg11.dtd">
<svg width="100%" height="100%" viewBox="0 0 24 24" version="1.1" xmlns="http://www.w3.org/2000/svg" xmlns:xlink="http://www.w3.org/1999/xlink" xml:space="preserve" xmlns:serif="http://www.serif.com/" style="fill-rule:evenodd;clip-rule:evenodd;stroke-linejoin:round;stroke-miterlimit:2;">
    <path d="M6,12L7,12L7,13L12,13L12,12L14,12L14,13L15,13L15,14L16,14L16,15L17,15L17,16L18,16L18,19L17,19L17,18L16,18L16,17L15,17L15,16L14,16L14,15L13,15L13,16L14,16L14,17L15,17L15,18L16,18L16,19L17,19L17,20L16,20L16,21L15,21L15,20L14,20L14,19L13,19L13,18L12,18L12,17L11,17L11,16L10,16L10,17L11,17L11,18L12,18L12,19L13,19L13,20L14,20L14,21L11,21L11,20L10,20L10,19L9,19L9,18L8,18L8,19L9,19L9,20L10,20L10,21L7,21L7,20L6,20L6,19L5,19L5,18L4,18L4,17L3,17L3,16L2,16L2,15L1,15L1,4L2,4L2,5L4,5L4,6L6,6L6,5L9,5L9,7L8,7L8,8L7,8L7,9L6,9L6,12Z" style="fill:rgb(255,179,71);fill-rule:nonzero;"/>
    <path d="M23,4L23,15L22,15L22,16L21,16L21,17L20,17L20,16L19,16L19,15L18,15L18,14L17,14L17,13L16,13L16,12L15,12L15,11L14,11L14,10L12,10L12,11L11,11L11,12L7,12L7,10L8,10L8,9L9,9L9,8L10,8L10,7L11,7L11,6L12,6L12,5L17,5L17,6L20,6L20,5L22,5L22,4L23,4Z" style="fill:rgb(255,179,71);fill-rule:nonzero;"/>
</svg>
