<?xml version="1.0" encoding="UTF-8" standalone="no"?>
<!DOCTYPE svg PUBLIC "-//W3C//DTD SVG 1.1//EN" "http://www.w3.org/Graphics/SVG/1.1/DTD/svg11.dtd">
<svg width="100%" height="100%" viewBox="0 0 24 24" version="1.1" xmlns="http://www.w3.org/2000/svg" xmlns:xlink="http://www.w3.org/1999/xlink" xml:space="preserve" xmlns:serif="http://www.serif.com/" style="fill-rule:evenodd;clip-rule:evenodd;stroke-linejoin:round;stroke-miterlimit:2;">
    <path d="M22,6L22,5L3,5L3,6L2,6L2,7L1,7L1,18L2,18L2,19L22,19L22,18L23,18L23,6L22,6ZM4,17L3,17L3,7L4,7L4,17ZM21,17L6,17L6,7L21,7L21,17Z" style="fill:rgb(255,179,71);fill-rule:nonzero;"/>
    <rect x="14" y="14" width="5" height="2" style="fill:rgb(255,179,71);"/>
    <rect x="14" y="11" width="5" height="2" style="fill:rgb(255,179,71);"/>
    <rect x="14" y="8" width="5" height="2" style="fill:rgb(255,179,71);"/>
    <path d="M7,8L7,13L13,13L13,8L7,8ZM11,11L9,11L9,10L11,10L11,11Z" style="fill:rgb(255,179,71);fill-rule:nonzero;"/>
    <rect x="7" y="14" width="6" height="2" style="fill:rgb(255,179,71);"/>
</svg>
