<?xml version="1.0" encoding="UTF-8" standalone="no"?>
<!DOCTYPE svg PUBLIC "-//W3C//DTD SVG 1.1//EN" "http://www.w3.org/Graphics/SVG/1.1/DTD/svg11.dtd">
<svg width="100%" height="100%" viewBox="0 0 24 24" version="1.1" xmlns="http://www.w3.org/2000/svg" xmlns:xlink="http://www.w3.org/1999/xlink" xml:space="preserve" xmlns:serif="http://www.serif.com/" style="fill-rule:evenodd;clip-rule:evenodd;stroke-linejoin:round;stroke-miterlimit:2;">
    <path d="M7,9L6,9L6,5L7,5L7,3L8,3L8,2L10,2L10,1L14,1L14,2L16,2L16,3L17,3L17,5L18,5L18,9L17,9L17,11L16,11L16,12L14,12L14,13L10,13L10,12L8,12L8,11L7,11L7,9Z" style="fill:rgb(255,179,71);fill-rule:nonzero;"/>
    <path d="M22,19L22,22L21,22L21,23L3,23L3,22L2,22L2,19L3,19L3,18L4,18L4,17L5,17L5,16L7,16L7,15L17,15L17,16L19,16L19,17L20,17L20,18L21,18L21,19L22,19Z" style="fill:rgb(255,179,71);fill-rule:nonzero;"/>
</svg>
