<?xml version="1.0" encoding="UTF-8" standalone="no"?>
<!DOCTYPE svg PUBLIC "-//W3C//DTD SVG 1.1//EN" "http://www.w3.org/Graphics/SVG/1.1/DTD/svg11.dtd">
<svg width="100%" height="100%" viewBox="0 0 24 24" version="1.1" xmlns="http://www.w3.org/2000/svg" xmlns:xlink="http://www.w3.org/1999/xlink" xml:space="preserve" xmlns:serif="http://www.serif.com/" style="fill-rule:evenodd;clip-rule:evenodd;stroke-linejoin:round;stroke-miterlimit:2;">
    <path d="M1.5,6.501L1.5,21.504L2.5,21.504L2.5,22.505L3.5,22.505L3.5,23.505L21.505,23.505L21.505,22.505L22.505,22.505L22.505,21.504L23.505,21.504L23.505,6.501L1.5,6.501ZM9.502,9.502L8.502,9.502L8.502,10.502L7.501,10.502L7.501,12.502L6.501,12.502L6.501,13.503L5.501,13.503L5.501,15.503L6.501,15.503L6.501,16.503L7.501,16.503L7.501,18.504L8.502,18.504L8.502,19.504L9.502,19.504L9.502,20.504L7.501,20.504L7.501,19.504L6.501,19.504L6.501,18.504L5.501,18.504L5.501,16.503L4.501,16.503L4.501,15.503L3.5,15.503L3.5,13.503L4.501,13.503L4.501,12.502L5.501,12.502L5.501,10.502L6.501,10.502L6.501,9.502L7.501,9.502L7.501,8.501L9.502,8.501L9.502,9.502ZM14.503,12.502L13.503,12.502L13.503,16.503L12.502,16.503L12.502,20.504L11.502,20.504L11.502,21.504L10.502,21.504L10.502,16.503L11.502,16.503L11.502,13.503L12.502,13.503L12.502,8.501L13.503,8.501L13.503,7.501L14.503,7.501L14.503,12.502ZM21.505,15.503L20.504,15.503L20.504,16.503L19.504,16.503L19.504,18.504L18.504,18.504L18.504,19.504L17.504,19.504L17.504,20.504L15.503,20.504L15.503,19.504L16.503,19.504L16.503,18.504L17.504,18.504L17.504,16.503L18.504,16.503L18.504,15.503L19.504,15.503L19.504,13.503L18.504,13.503L18.504,12.502L17.504,12.502L17.504,10.502L16.503,10.502L16.503,9.502L15.503,9.502L15.503,8.501L17.504,8.501L17.504,9.502L18.504,9.502L18.504,10.502L19.504,10.502L19.504,12.502L20.504,12.502L20.504,13.503L21.505,13.503L21.505,15.503Z" style="fill:rgb(255,179,71);fill-rule:nonzero;"/>
    <path d="M22.505,3.5L22.505,2.5L21.505,2.5L21.505,1.5L3.5,1.5L3.5,2.5L2.5,2.5L2.5,3.5L1.5,3.5L1.5,5.501L23.505,5.501L23.505,3.5L22.505,3.5ZM4.501,4.501L4.501,2.5L6.501,2.5L6.501,4.501L4.501,4.501ZM7.501,4.501L7.501,2.5L9.502,2.5L9.502,4.501L7.501,4.501ZM10.502,4.501L10.502,2.5L12.502,2.5L12.502,4.501L10.502,4.501Z" style="fill:rgb(255,179,71);fill-rule:nonzero;"/>
</svg>
