<?xml version="1.0" encoding="UTF-8" standalone="no"?>
<!DOCTYPE svg PUBLIC "-//W3C//DTD SVG 1.1//EN" "http://www.w3.org/Graphics/SVG/1.1/DTD/svg11.dtd">
<svg width="100%" height="100%" viewBox="0 0 24 24" version="1.1" xmlns="http://www.w3.org/2000/svg" xmlns:xlink="http://www.w3.org/1999/xlink" xml:space="preserve" xmlns:serif="http://www.serif.com/" style="fill-rule:evenodd;clip-rule:evenodd;stroke-linejoin:round;stroke-miterlimit:2;">
    <rect x="4" y="21" width="16" height="2" style="fill:rgb(255,179,71);"/>
    <path d="M21,3L21,2L20,2L20,1L4,1L4,2L3,2L3,3L2,3L2,17L3,17L3,18L4,18L4,19L20,19L20,18L21,18L21,17L22,17L22,3L21,3ZM8,16L6,16L6,14L8,14L8,16ZM18,16L11,16L11,14L18,14L18,16ZM6,12L6,11L5,11L5,5L6,5L6,4L18,4L18,5L19,5L19,11L18,11L18,12L6,12Z" style="fill:rgb(255,179,71);fill-rule:nonzero;"/>
</svg>
