<?xml version="1.0" encoding="UTF-8" standalone="no"?>
<!DOCTYPE svg PUBLIC "-//W3C//DTD SVG 1.1//EN" "http://www.w3.org/Graphics/SVG/1.1/DTD/svg11.dtd">
<svg width="100%" height="100%" viewBox="0 0 24 24" version="1.1" xmlns="http://www.w3.org/2000/svg" xmlns:xlink="http://www.w3.org/1999/xlink" xml:space="preserve" xmlns:serif="http://www.serif.com/" style="fill-rule:evenodd;clip-rule:evenodd;stroke-linejoin:round;stroke-miterlimit:2;">
    <rect x="11" y="14" width="7" height="2" style="fill:rgb(255,179,71);"/>
    <rect x="6" y="14" width="2" height="2" style="fill:rgb(255,179,71);"/>
    <path d="M18,6L18,11L17,11L17,12L7,12L7,11L6,11L6,6L7,6L7,5L17,5L17,6L18,6Z" style="fill:rgb(255,179,71);fill-rule:nonzero;"/>
    <path d="M21,3L21,2L20,2L20,1L4,1L4,2L3,2L3,3L2,3L2,17L3,17L3,18L4,18L4,22L5,22L5,23L19,23L19,22L20,22L20,18L21,18L21,17L22,17L22,3L21,3ZM18,21L6,21L6,19L18,19L18,21ZM20,16L19,16L19,17L5,17L5,16L4,16L4,4L5,4L5,3L19,3L19,4L20,4L20,16Z" style="fill:rgb(255,179,71);fill-rule:nonzero;"/>
</svg>
