<?xml version="1.0" encoding="UTF-8" standalone="no"?>
<!DOCTYPE svg PUBLIC "-//W3C//DTD SVG 1.1//EN" "http://www.w3.org/Graphics/SVG/1.1/DTD/svg11.dtd">
<svg width="100%" height="100%" viewBox="0 0 24 24" version="1.1" xmlns="http://www.w3.org/2000/svg" xmlns:xlink="http://www.w3.org/1999/xlink" xml:space="preserve" xmlns:serif="http://www.serif.com/" style="fill-rule:evenodd;clip-rule:evenodd;stroke-linejoin:round;stroke-miterlimit:2;">
    <rect x="14" y="15" width="3" height="1" style="fill:rgb(255,179,71);"/>
    <rect x="11" y="15" width="2" height="1" style="fill:rgb(255,179,71);"/>
    <rect x="7" y="15" width="3" height="1" style="fill:rgb(255,179,71);"/>
    <path d="M19,7L18,7L18,6L13,6L13,3L11,3L11,6L6,6L6,7L5,7L5,8L4,8L4,18L5,18L5,19L6,19L6,20L18,20L18,19L19,19L19,18L20,18L20,8L19,8L19,7ZM17,17L17,18L7,18L7,17L6,17L6,9L7,9L7,8L17,8L17,9L18,9L18,17L17,17Z" style="fill:rgb(255,179,71);fill-rule:nonzero;"/>
    <path d="M23,11L23,16L22,16L22,17L21,17L21,10L22,10L22,11L23,11Z" style="fill:rgb(255,179,71);fill-rule:nonzero;"/>
    <path d="M2,10L3,10L3,17L2,17L2,16L1,16L1,11L2,11L2,10Z" style="fill:rgb(255,179,71);fill-rule:nonzero;"/>
    <rect x="14" y="10" width="3" height="3" style="fill:rgb(255,179,71);"/>
    <rect x="7" y="10" width="3" height="3" style="fill:rgb(255,179,71);"/>
</svg>
