<?xml version="1.0" encoding="UTF-8" standalone="no"?>
<!DOCTYPE svg PUBLIC "-//W3C//DTD SVG 1.1//EN" "http://www.w3.org/Graphics/SVG/1.1/DTD/svg11.dtd">
<svg width="100%" height="100%" viewBox="0 0 24 24" version="1.1" xmlns="http://www.w3.org/2000/svg" xmlns:xlink="http://www.w3.org/1999/xlink" xml:space="preserve" xmlns:serif="http://www.serif.com/" style="fill-rule:evenodd;clip-rule:evenodd;stroke-linejoin:round;stroke-miterlimit:2;">
    <path d="M16,17L15,17L15,18L13,18L13,19L7,19L7,18L5,18L5,17L4,17L4,16L3,16L3,15L2,15L2,13L1,13L1,7L2,7L2,5L3,5L3,4L4,4L4,3L5,3L5,2L7,2L7,1L13,1L13,2L15,2L15,3L16,3L16,4L17,4L17,5L18,5L18,7L19,7L19,13L18,13L18,15L17,15L17,16L16,16L16,17Z" style="fill:rgb(255,179,71);fill-rule:nonzero;"/>
    <path d="M23,20L23,22L22,22L22,23L20,23L20,22L19,22L19,21L18,21L18,20L17,20L17,19L16,19L16,18L17,18L17,17L18,17L18,16L19,16L19,17L20,17L20,18L21,18L21,19L22,19L22,20L23,20Z" style="fill:rgb(255,179,71);fill-rule:nonzero;"/>
</svg>
