<?xml version="1.0" encoding="UTF-8" standalone="no"?>
<!DOCTYPE svg PUBLIC "-//W3C//DTD SVG 1.1//EN" "http://www.w3.org/Graphics/SVG/1.1/DTD/svg11.dtd">
<svg width="100%" height="100%" viewBox="0 0 24 24" version="1.1" xmlns="http://www.w3.org/2000/svg" xmlns:xlink="http://www.w3.org/1999/xlink" xml:space="preserve" xmlns:serif="http://www.serif.com/" style="fill-rule:evenodd;clip-rule:evenodd;stroke-linejoin:round;stroke-miterlimit:2;">
    <path d="M7,18L7,19L6,19L6,20L5,20L5,19L4,19L4,18L5,18L5,17L6,17L6,18L7,18Z" style="fill:rgb(255,179,71);fill-rule:nonzero;"/>
    <path d="M22,16L22,15L21,15L21,14L17,14L17,13L18,13L18,12L19,12L19,11L20,11L20,10L21,10L21,9L22,9L22,7L21,7L21,6L20,6L20,5L19,5L19,4L18,4L18,3L17,3L17,2L15,2L15,3L14,3L14,4L13,4L13,5L12,5L12,6L11,6L11,7L10,7L10,3L9,3L9,2L8,2L8,1L3,1L3,2L2,2L2,3L1,3L1,20L2,20L2,22L3,22L3,23L21,23L21,22L22,22L22,21L23,21L23,16L22,16ZM8,20L7,20L7,21L4,21L4,20L3,20L3,14L8,14L8,20ZM8,12L3,12L3,9L8,9L8,12ZM8,7L3,7L3,4L4,4L4,3L7,3L7,4L8,4L8,7ZM10,10L11,10L11,9L12,9L12,8L13,8L13,7L14,7L14,6L15,6L15,5L17,5L17,6L18,6L18,7L19,7L19,9L18,9L18,10L17,10L17,11L16,11L16,12L15,12L15,13L14,13L14,14L13,14L13,15L12,15L12,16L11,16L11,17L10,17L10,10ZM21,20L20,20L20,21L10,21L10,20L11,20L11,19L12,19L12,18L13,18L13,17L14,17L14,16L20,16L20,17L21,17L21,20Z" style="fill:rgb(255,179,71);fill-rule:nonzero;"/>
</svg>
