<?xml version="1.0" encoding="UTF-8" standalone="no"?>
<!DOCTYPE svg PUBLIC "-//W3C//DTD SVG 1.1//EN" "http://www.w3.org/Graphics/SVG/1.1/DTD/svg11.dtd">
<svg width="100%" height="100%" viewBox="0 0 24 24" version="1.1" xmlns="http://www.w3.org/2000/svg" xmlns:xlink="http://www.w3.org/1999/xlink" xml:space="preserve" xmlns:serif="http://www.serif.com/" style="fill-rule:evenodd;clip-rule:evenodd;stroke-linejoin:round;stroke-miterlimit:2;">
    <path d="M22,2L22,1L2,1L2,2L1,2L1,22L2,22L2,23L22,23L22,22L23,22L23,2L22,2ZM18,9L17,9L17,10L16,10L16,11L15,11L15,13L16,13L16,14L17,14L17,15L18,15L18,16L17,16L17,17L16,17L16,18L15,18L15,17L14,17L14,16L13,16L13,15L11,15L11,16L10,16L10,17L9,17L9,18L8,18L8,17L7,17L7,16L6,16L6,15L7,15L7,14L8,14L8,13L9,13L9,11L8,11L8,10L7,10L7,9L6,9L6,8L7,8L7,7L8,7L8,6L9,6L9,7L10,7L10,8L11,8L11,9L13,9L13,8L14,8L14,7L15,7L15,6L16,6L16,7L17,7L17,8L18,8L18,9Z" style="fill:rgb(255,179,71);fill-rule:nonzero;"/>
</svg>
